<?xml version="1.0" encoding="UTF-8"?>
<svg width="752pt" height="752pt" version="1.1" viewBox="0 0 752 752" xmlns="http://www.w3.org/2000/svg">
 <path d="m145.23 376 230.77 133.24 230.77-133.24-230.77-133.23zm308.5-71.953c-10.277 5.8867-20.352 11.281-31.805 14.688-0.89062 0.26562-1.6992 0.46094-2.543 0.67578-4.5781-2.2266-9.1602-4.4102-13.684-6.5391-5.8164-2.7422-11.625-5.4844-17.391-8.3359-2.832-1.4023-5.6328-2.8789-8.4531-4.3438 11.574-6.168 22.961-12.66 34.121-19.098zm43.332 25.02c-10.656 6.0938-22.125 12.176-34.168 15.27-6.0664-4.0391-12.238-8.0039-18.516-11.715-6.5938-3.9023-13.395-7.4727-20.227-10.875 11.973-3.7383 22.77-9.6406 33.152-15.629zm43.305 25c-11.238 6.4727-22.684 12.973-34.316 19.109-3.1484-1.9844-6.3086-3.9609-9.4062-5.9922-6.1797-4.0508-12.281-8.2422-18.371-12.422-3.8281-2.625-7.707-5.2695-11.625-7.9023 12.258-3.6328 23.777-9.8828 33.965-15.742zm37.992 21.934-34.426 19.875c-11.059-6.4062-22.777-13.246-34.434-20.5 11.672-6.2148 23.152-12.77 34.414-19.262zm-370.28-19.883c11.258 6.4922 22.73 13.051 34.414 19.262-11.656 7.2461-23.375 14.102-34.434 20.5l-34.418-19.879zm43.301-25c10.184 5.8516 21.695 12.125 33.941 15.758-3.9023 2.6289-7.7773 5.2656-11.582 7.8789-6.1055 4.1875-12.203 8.3828-18.391 12.43-3.0938 2.0312-6.25 4.0078-9.3945 5.9922-11.633-6.1367-23.078-12.641-34.316-19.113zm86.641-50.02c11.164 6.4375 22.543 12.934 34.117 19.098-2.8164 1.457-5.625 2.9414-8.457 4.3438-5.7695 2.8555-11.582 5.5977-17.398 8.3398-4.5117 2.1328-9.082 4.3086-13.652 6.5273-0.83984-0.21875-1.6523-0.41016-2.5391-0.67578-11.457-3.4062-21.527-8.793-31.809-14.699zm104.55 54.574c5.2266 3.0938 10.383 6.3789 15.484 9.7266-4.1992 0.77344-8.457 1.1602-12.773 0.99609-5.1211-0.16406-9.6094-0.55469-13.957-0.93359-3.8828-0.33594-7.5195-0.64063-11.043-0.71875-1.8945-2.1562-3.8359-4.2812-5.8242-6.3516-5.625-5.8125-11.035-10.504-17.195-13.754 2.3789 0.20312 4.7461 0.35938 7.1953 0.35938 4.3477 0 9.0312-0.49219 14.543-1.8242 7.9648 3.8945 15.914 7.9727 23.57 12.5zm-109.55-12.504c5.5078 1.332 10.191 1.8242 14.535 1.8242 2.5156 0 4.9375-0.16406 7.3789-0.37891-6.2695 3.2695-11.738 7.957-17.23 13.621-2.0547 2.1172-4.0391 4.3008-5.9922 6.5117-3.5156 0.082031-7.1445 0.37891-11.023 0.71484-4.3477 0.37891-8.8477 0.77344-13.969 0.93359-4.3125 0.15234-8.5664-0.24219-12.75-1.0039 5.0898-3.3438 10.238-6.625 15.461-9.7148 7.6562-4.5312 15.617-8.6094 23.59-12.508zm43.09-0.046875c15.66 0.15625 25.305 6.8984 35.777 17.734 1.2422 1.2852 2.4375 2.6172 3.6406 3.9453-10.25 0.54297-19.941 4.0547-32.375 16.293-2.4766 2.4336-4.8398 4.9688-7.1562 7.543-2.3164-2.5781-4.6797-5.1094-7.1562-7.543-12.43-12.238-22.129-15.742-32.383-16.281 1.2539-1.3789 2.5-2.7656 3.793-4.1016 10.457-10.785 20.105-17.484 35.859-17.59zm-69.273 26.824c5.2188-0.17187 9.9688-0.58203 14.164-0.94141 2.6719-0.23047 5.168-0.44141 7.5625-0.58203-4.0117 4.7305-7.8633 9.5469-11.621 14.293-2.2305 2.8125-4.457 5.625-6.7188 8.4141-7.7188 9.5078-14.465 16.836-21.223 23.086-4.4297-2.1445-8.8477-4.2422-13.219-6.3125-5.8203-2.7422-11.641-5.4883-17.41-8.3438-2.9375-1.4531-5.8477-2.9883-8.7656-4.5039 2.5664-1.6289 5.1523-3.2383 7.6875-4.8984 6.207-4.0742 12.332-8.2734 18.449-12.469 4.6406-3.1836 9.3633-6.4023 14.133-9.5898 5.543 1.3008 11.211 2.0234 16.961 1.8477zm6.1406 23.418c2.2734-2.8008 4.5078-5.625 6.75-8.4492 4.3945-5.5469 8.9141-11.203 13.664-16.664 10.98-0.03125 20.113 2.7227 32.961 15.371 2.5195 2.4766 4.9297 5.0781 7.2891 7.7148-4.8164 5.5391-9.3828 11.246-13.82 16.875-6.0664 7.6875-12.34 15.629-19.184 22.859-2.6484 2.793-5.4102 5.4102-8.207 7.9375-5.9023-3.918-11.895-7.7656-17.992-11.371-7.1797-4.2422-14.605-8.0938-22.055-11.754 6.582-6.1992 13.184-13.387 20.594-22.52zm30.238 40.141c6.9531-7.3438 13.277-15.352 19.395-23.098 4.3086-5.4492 8.7383-10.996 13.387-16.371 4.6523 5.375 9.0781 10.922 13.395 16.375 6.1172 7.7422 12.441 15.758 19.395 23.098 2.5039 2.6484 5.1055 5.1289 7.7461 7.5352-4.3086 2.8945-8.5859 5.8164-12.781 8.6797-6.125 4.1992-12.246 8.4023-18.461 12.48-3.0586 2.0078-6.1758 3.9609-9.2812 5.918-3.1055-1.9609-6.2266-3.9102-9.2852-5.918-6.2148-4.0664-12.336-8.2773-18.461-12.48-4.1992-2.8711-8.4688-5.7891-12.777-8.6797 2.625-2.4062 5.2266-4.8867 7.7305-7.5391zm68.148-2.4336c-6.8398-7.2266-13.121-15.172-19.184-22.859-4.4375-5.625-9.0039-11.336-13.82-16.879 2.3594-2.6367 4.7695-5.2344 7.2891-7.7109 12.852-12.645 21.984-15.41 32.965-15.379 4.7344 5.4453 9.25 11.098 13.633 16.633 2.2695 2.8711 4.5508 5.7383 6.8633 8.5859 7.375 9.082 13.941 16.25 20.508 22.395-7.4453 3.6602-14.871 7.5195-22.051 11.758-6.1016 3.6133-12.094 7.4531-17.992 11.371-2.8047-2.5117-5.5703-5.1211-8.2109-7.9141zm30.5-39.844c-2.3008-2.8359-4.5703-5.6953-6.8398-8.5586-3.75-4.7305-7.5977-9.5391-11.594-14.254 2.3945 0.14063 4.8984 0.35156 7.5781 0.58594 4.1914 0.36328 8.9414 0.77734 14.152 0.94141 5.7344 0.16406 11.402-0.5625 16.934-1.8711 4.7812 3.1914 9.5195 6.4219 14.164 9.6133 6.1172 4.1953 12.234 8.3906 18.441 12.465 2.5352 1.6641 5.125 3.2734 7.6875 4.9023-2.9141 1.5156-5.8242 3.0508-8.7695 4.5039-5.7812 2.8594-11.613 5.6133-17.445 8.3672-4.3477 2.0508-8.7344 4.1445-13.129 6.2656-6.7969-6.2617-13.547-13.57-21.18-22.961zm-49.172-50.598c-4.2109-0.4375-8.9805-0.93359-14.629-1.0508h-0.039062c-0.14844 0-0.27344 0.046875-0.41016 0.082031-0.49609-0.015625-0.95313-0.089844-1.4688-0.09375h-0.003907-0.007812-0.007813c-0.52734 0-0.99609 0.074219-1.5117 0.09375-0.20313-0.0625-0.41797-0.097656-0.67188-0.082031-5.6484 0.11328-10.418 0.60938-14.629 1.0469-7.1836 0.75-13.23 1.3633-21.117 0.015625 3.2148-1.5391 6.4219-3.0547 9.6055-4.5508 5.8359-2.7578 11.672-5.5078 17.465-8.3711 3.5977-1.7812 7.1719-3.6484 10.742-5.5156 3.5664 1.8711 7.1367 3.7305 10.734 5.5117 5.793 2.8594 11.625 5.6172 17.461 8.3633 3.1875 1.5 6.4062 3.0156 9.625 4.5625-7.9102 1.3477-13.953 0.73438-21.137-0.011719zm-97.992-14.52c10.391 5.9844 21.188 11.895 33.156 15.629-6.832 3.3984-13.641 6.9766-20.23 10.875-6.2695 3.7109-12.43 7.6719-18.492 11.707-12.066-3.0859-23.527-9.1602-34.188-15.254zm-48.559 71.156c3.543 1.8555 7.0898 3.7031 10.66 5.4727 5.793 2.8594 11.633 5.6211 17.469 8.3789 3.9336 1.8594 7.9102 3.7461 11.887 5.6602-10.129 8.918-20.633 15.77-34.805 24.098l-39.742-22.945c11.137-6.4531 22.879-13.359 34.531-20.664zm43.438 21.184c7.7969 3.8164 15.57 7.8125 23.043 12.238 5.7617 3.4102 11.453 7.0391 17.055 10.75-11.336 9.7734-23.551 17.66-35.016 24.441l-39.781-22.969c13.789-8.168 24.371-15.211 34.699-24.461zm43.148 25.027c4.5547 3.0586 9.0742 6.1328 13.512 9.1797 6.1406 4.2188 12.289 8.4258 18.523 12.527 2.6133 1.7109 5.2812 3.375 7.9336 5.0469-11.758 7.3203-23.562 14.227-34.691 20.668l-39.824-22.988c11.363-6.793 23.367-14.672 34.547-24.434zm43.27 28.855c11.648 7.2969 23.355 14.188 34.445 20.613l-34.445 19.887-34.445-19.887c11.094-6.4297 22.801-13.32 34.445-20.613zm3.3008-2.1016c2.6523-1.6797 5.3164-3.3398 7.9297-5.0469 6.2305-4.082 12.375-8.3047 18.523-12.52 4.4414-3.0469 8.9609-6.125 13.516-9.1797 11.188 9.7695 23.188 17.645 34.547 24.426l-39.828 22.988c-11.117-6.4375-22.918-13.34-34.688-20.668zm43.012-28.793c5.6133-3.707 11.293-7.3359 17.059-10.75 7.4766-4.4219 15.254-8.4219 23.043-12.234 10.328 9.2461 20.902 16.281 34.699 24.457l-39.777 22.965c-11.461-6.7812-23.676-14.66-35.023-24.438zm43.574-24.684c3.9492-1.8984 7.8984-3.7852 11.801-5.625 5.8477-2.75 11.703-5.5234 17.504-8.3867 3.5703-1.7695 7.1172-3.6172 10.66-5.4727 11.656 7.3008 23.391 14.207 34.527 20.656l-39.746 22.949c-13.918-8.1992-24.504-15.133-34.746-24.121zm-89.887-98.539c-11.664-6.1562-23.148-12.68-34.426-19.172l34.426-19.875 34.43 19.875c-11.273 6.4961-22.758 13.016-34.43 19.172z"/>
</svg>
